# xmcd
#
# Track frame offsets:
#	150
#	15665
#	30653
#	44859
#	59406
#	72894
#	85370
#	98711
#	113385
#	129603
#
# Disc length: 1946 seconds
#
# Revision: 0
# Processed by: cddbd v1.5PL3 Copyright (c) Steve Scherf et al.
# Submitted via: dBpowerAMP V4.0
#
DISCID=8307980a
DTITLE=Joan Sebastian - Joyas Musicales
DYEAR=2003
DGENRE=Latin
TTITLE0=Juliantla
TTITLE1=Esta Penita
TTITLE2=Bandolero
TTITLE3=Amor Desesperado
TTITLE4=Nelly
TTITLE5=Lobo Domesticado
TTITLE6=Aguila En El Viento
TTITLE7=Vete O me Voy
TTITLE8=Corazon Alerta
TTITLE9=Dile
EXTD=
EXTT0=
EXTT1=
EXTT2=
EXTT3=
EXTT4=
EXTT5=
EXTT6=
EXTT7=
EXTT8=
EXTT9=
PLAYORDER=
